<?xml version="1.0" encoding="utf-8"?>
<!-- Generator: Adobe Illustrator 25.2.0, SVG Export Plug-In . SVG Version: 6.00 Build 0)  -->
<svg version="1.1" id="Layer_1" xmlns="http://www.w3.org/2000/svg" xmlns:xlink="http://www.w3.org/1999/xlink" x="0px" y="0px"
	 viewBox="0 0 19.6 29.5" style="enable-background:new 0 0 19.6 29.5;" xml:space="preserve">
<style type="text/css">
	.st0{fill:#00CAD6;}
</style>
<g id="Layer_2_1_">
	<g id="Layer_1-2">
		<path class="st0" d="M14,11.1c-0.1-0.5-0.3-0.9-0.5-1.3h-0.2c-0.1,0-0.1,0-0.2,0v2.6c0.7,0.6,1.1,1.6,0.8,2.5
			c-0.1,0.4,0,0.7,0.3,0.9c0.2,0.1,0.3,0,0.5-0.1c0.4-0.3,0.5-1.2-0.1-2.7C14.4,12.3,14.2,11.7,14,11.1z"/>
		<path class="st0" d="M13.2,9.5L13.2,9.5z"/>
		<path class="st0" d="M9.8,0C4.4,0,0,4.4,0,9.8c0,4.8,8.5,18.8,8.5,18.8c0.3,0.7,1.1,1.1,1.8,0.8c0.4-0.1,0.6-0.4,0.8-0.8
			c0,0,8.5-14,8.5-18.8C19.6,4.4,15.2,0,9.8,0z M15,16c-0.2,0.2-0.4,0.2-0.6,0.2c-0.1,0-0.3,0-0.4-0.1c-0.5-0.3-0.7-0.9-0.6-1.4
			c0.1-0.6,0-1.2-0.4-1.7v3.1c0,0.2-0.2,0.4-0.4,0.4c0,0,0,0,0,0H6.3c-0.2,0-0.4-0.2-0.4-0.4V7.2c0-0.2,0.2-0.4,0.4-0.4h6.3
			C12.8,6.8,13,7,13,7.2l0,0v1.5h0.3c0,0,0.1,0,0.1,0l1.2,1c0.1,0.1,0.1,0.2,0,0.2c0,0,0,0,0,0c0,0-0.1,0.1-0.1,0.1c0,0-0.1,0-0.1,0
			l-0.4-0.3l0,0c0.2,0.4,0.3,0.8,0.4,1.1c0.1,0.5,0.3,1.1,0.6,1.8C15.9,15,15.2,15.8,15,16z"/>
		<path class="st0" d="M11.8,7.7H7.1c-0.2,0-0.4,0.2-0.4,0.4l0,0v2.6c0,0.2,0.2,0.4,0.4,0.4l0,0h2L9.9,9c0,0,0.1,0,0.1,0
			c0,0,0,0,0,0c0,0,0,0,0,0.1l-0.3,2.1h2c0.2,0,0.4-0.2,0.4-0.4c0,0,0,0,0,0V8.1C12.1,7.9,12,7.7,11.8,7.7z M7.6,9.4
			C7.6,9.4,7.6,9.4,7.6,9.4L7.6,9.4C7.4,9.3,7.2,9.2,7.1,9.1c0,0-0.1,0-0.1,0C7,9,7,9,7,9c0,0,0.1,0,0.1,0c0,0,0,0,0,0
			C7.3,9.1,7.4,9.2,7.6,9.4C7.6,9.4,7.6,9.4,7.6,9.4z M8.5,9.1L8.5,9.1C8.5,9.2,8.5,9.1,8.5,9.1L8.2,8.6c0,0,0-0.1,0-0.1
			c0,0,0.1,0,0.1,0c0,0,0,0,0,0L8.6,9C8.6,9,8.6,9.1,8.5,9.1C8.6,9.1,8.6,9.1,8.5,9.1z M9.5,9C9.5,9,9.5,9.1,9.5,9
			C9.5,9.1,9.5,9.1,9.5,9C9.4,9.1,9.4,9,9.4,9V8.4c0,0,0-0.1,0.1-0.1c0,0,0,0,0,0c0,0,0.1,0,0.1,0.1c0,0,0,0,0,0V9z M10.7,8.6
			c-0.1,0.2-0.1,0.4-0.2,0.6c0,0,0,0-0.1,0.1l0,0c0,0-0.1-0.1-0.1-0.1c0,0,0,0,0,0c0.1-0.2,0.1-0.4,0.2-0.5c0,0,0-0.1,0.1-0.1
			C10.7,8.4,10.8,8.5,10.7,8.6C10.8,8.5,10.8,8.6,10.7,8.6L10.7,8.6z M11.9,9.1c-0.2,0.1-0.3,0.2-0.4,0.3h-0.1c0,0,0,0-0.1,0
			c0,0,0-0.1,0-0.1c0,0,0,0,0,0c0.1-0.1,0.2-0.2,0.3-0.2L11.8,9c0,0,0.1,0,0.1,0C11.9,9,11.9,9.1,11.9,9.1L11.9,9.1z"/>
		<path class="st0" d="M9.5,12.2l-0.2,0.3c-0.4,0.7-0.7,1.4-0.9,2.1c0,0.6,0.5,1.1,1.1,1.1s1.1-0.5,1.1-1.1
			c-0.2-0.8-0.5-1.5-0.9-2.1L9.5,12.2z M9.3,15.3L9.3,15.3L9.3,15.3L9.3,15.3H9.2l-0.1-0.1L9,15.1c0,0-0.1-0.1-0.1-0.1
			c0-0.1,0-0.1,0-0.2v-0.2c0-0.1,0-0.2,0.1-0.3c0-0.1,0-0.2,0-0.2l0.1-0.2v-0.1l0,0l0,0l0,0c0,0,0,0,0,0.1c0,0.1,0,0.1-0.1,0.2
			c0,0,0,0.1,0,0.1c0,0,0,0.1,0,0.1c0,0.1,0,0.2,0,0.3c0,0,0,0.1,0,0.1c0,0,0,0.1,0,0.1v0.1C9,15,9,15,9,15c0,0,0,0,0,0.1v0.1v0.1
			v0.1L9.3,15.3z"/>
	</g>
</g>
</svg>
