<svg xmlns="http://www.w3.org/2000/svg" viewBox="0 0 57.15 86.15"><defs><style>.cls-1{fill:#fff;}</style></defs><g id="Layer_2" data-name="Layer 2"><g id="Layer_1-2" data-name="Layer 1"><path class="cls-1" d="M40.85,32.29a13.14,13.14,0,0,0-1.41-3.77h-.72a2.52,2.52,0,0,1-.63-.09V36c1.23.86,3,2.87,2.43,7.25-.2,1.57.35,2.45.92,2.75a1.17,1.17,0,0,0,1.38-.22c1-.93,1.53-3.52-.21-8A53.49,53.49,0,0,1,40.85,32.29Z"/><path class="cls-1" d="M38.52,27.76l0,0,.16,0Z"/><path class="cls-1" d="M28.57,0A28.61,28.61,0,0,0,0,28.57c0,14,24.79,55,24.79,55,2.08,3.44,5.49,3.44,7.57,0,0,0,24.79-41,24.79-55A28.61,28.61,0,0,0,28.57,0ZM43.81,46.86a2.77,2.77,0,0,1-1.84.73,2.64,2.64,0,0,1-1.21-.3c-1-.53-2-1.93-1.71-4.24.33-2.59-.27-4.14-1-5v9.17a1.26,1.26,0,0,1-1.26,1.25H18.4a1.25,1.25,0,0,1-1.25-1.25v-26a1.25,1.25,0,0,1,1.25-1.25H36.83a1.26,1.26,0,0,1,1.26,1.25v4.43H39a.52.52,0,0,1,.32.11l3.66,2.88a.51.51,0,0,1,.09.73.55.55,0,0,1-.42.2.56.56,0,0,1-.32-.11l-1.08-.86h-.06a21.06,21.06,0,0,1,1.12,3.37A55.1,55.1,0,0,0,44,37.24C46.52,43.75,44.49,46.25,43.81,46.86Z"/><path class="cls-1" d="M34.41,22.47H20.83a1.27,1.27,0,0,0-1.26,1.26v7.6a1.27,1.27,0,0,0,1.26,1.26h5.9l2.18-6.2a.19.19,0,0,1,.37.09l-.86,6.11h6a1.27,1.27,0,0,0,1.26-1.26v-7.6A1.27,1.27,0,0,0,34.41,22.47Zm-12.16,5.1a.26.26,0,0,1-.19.1.25.25,0,0,1-.16-.06,14.62,14.62,0,0,0-1.33-1,.25.25,0,0,1-.07-.35.24.24,0,0,1,.34-.07,14.22,14.22,0,0,1,1.38,1A.24.24,0,0,1,22.25,27.57Zm2.69-.84a.2.2,0,0,1-.1,0,.25.25,0,0,1-.23-.15L23.93,25a.26.26,0,0,1,.13-.33.25.25,0,0,1,.33.13l.68,1.59A.26.26,0,0,1,24.94,26.73Zm2.93-.51a.26.26,0,0,1-.25.26.26.26,0,0,1-.26-.26V24.48a.25.25,0,1,1,.5,0ZM31.3,25c-.22.52-.45,1.05-.67,1.58a.25.25,0,0,1-.23.15l-.1,0a.25.25,0,0,1-.14-.33l.68-1.58a.25.25,0,0,1,.33-.13A.24.24,0,0,1,31.3,25Zm3.36,1.64a12.89,12.89,0,0,0-1.32,1,.27.27,0,0,1-.16.06.25.25,0,0,1-.2-.09.26.26,0,0,1,0-.36c.29-.24.57-.45.85-.64s.35-.26.52-.37a.25.25,0,0,1,.32.37S34.69,26.66,34.66,26.68Z"/><path class="cls-1" d="M27.68,35.7l-.52.89c-.46.76-2.72,4.65-2.72,6.19a3.25,3.25,0,0,0,6.49,0c0-1.54-2.26-5.43-2.72-6.19Zm-.46,8.93a0,0,0,0,1,0,0h0A1.21,1.21,0,0,1,27,44.6l-.23-.12a1.65,1.65,0,0,1-.27-.21,1.43,1.43,0,0,1-.27-.32,1.32,1.32,0,0,1-.21-.41,1.58,1.58,0,0,1-.1-.49,4.13,4.13,0,0,1,0-.5,4,4,0,0,1,.17-.94,6,6,0,0,1,.3-.74l.26-.49.07-.14,0-.05a0,0,0,0,1,0,0,.05.05,0,0,1,0,0,.28.28,0,0,1,0,.06s0,.09,0,.15-.08.32-.13.54a3.59,3.59,0,0,0-.08.35l-.06.39a3.84,3.84,0,0,0,0,.83,2.59,2.59,0,0,0,.09.4l.14.36.13.33.12.31.06.14.06.13.1.22a1.33,1.33,0,0,1,.08.21Z"/></g></g></svg>